<svg id="visual" viewBox="0 0 2700 1800" width="2700" height="1800" xmlns="http://www.w3.org/2000/svg" xmlns:xlink="http://www.w3.org/1999/xlink" version="1.1"><rect x="0" y="0" width="2700" height="1800" fill="#ffffff"></rect><defs><linearGradient id="grad1_0" x1="33.3%" y1="0%" x2="100%" y2="100%"><stop offset="20%" stop-color="#ffffff" stop-opacity="1"></stop><stop offset="80%" stop-color="#ffffff" stop-opacity="1"></stop></linearGradient></defs><defs><linearGradient id="grad2_0" x1="0%" y1="0%" x2="66.7%" y2="100%"><stop offset="20%" stop-color="#ffffff" stop-opacity="1"></stop><stop offset="80%" stop-color="#ffffff" stop-opacity="1"></stop></linearGradient></defs><g transform="translate(2700, 0)"><path d="M0 1460.2C-214.7 1462.5 -429.3 1464.8 -558.8 1349.1C-688.3 1233.4 -732.6 999.7 -858.4 858.4C-984.2 717.2 -1191.6 668.4 -1305.4 540.7C-1419.3 413.1 -1439.8 206.5 -1460.2 0L0 0Z" fill="#F5DEB3"></path></g><g transform="translate(0, 1800)"><path d="M0 -1460.2C195.5 -1432.8 390.9 -1405.3 546.1 -1318.4C701.2 -1231.4 816.1 -1085.1 956 -956C1095.9 -827 1260.9 -715.3 1349.1 -558.8C1437.3 -402.4 1448.8 -201.2 1460.2 0L0 0Z" fill="#F5DEB3"></path></g></svg>