<svg id="visual" viewBox="0 0 900 600" width="900" height="600" xmlns="http://www.w3.org/2000/svg" xmlns:xlink="http://www.w3.org/1999/xlink" version="1.1"><rect x="0" y="0" width="900" height="600" fill="#ffffff"></rect><defs><linearGradient id="grad1_0" x1="33.3%" y1="0%" x2="100%" y2="100%"><stop offset="20%" stop-color="#ffffff" stop-opacity="1"></stop><stop offset="80%" stop-color="#ffffff" stop-opacity="1"></stop></linearGradient></defs><defs><linearGradient id="grad2_0" x1="0%" y1="0%" x2="66.7%" y2="100%"><stop offset="20%" stop-color="#ffffff" stop-opacity="1"></stop><stop offset="80%" stop-color="#ffffff" stop-opacity="1"></stop></linearGradient></defs><g transform="translate(900, 0)"><path d="M0 486.7C-52 455 -103.9 423.2 -168 405.6C-232.1 388 -308.3 384.6 -344.2 344.2C-380.1 303.7 -375.6 226.2 -392.6 162.6C-409.7 99.1 -448.2 49.5 -486.7 0L0 0Z" fill="#FDF2E0"></path></g><g transform="translate(0, 600)"><path d="M0 -486.7C47.6 -446.6 95.2 -406.4 161.9 -390.8C228.6 -375.2 314.4 -384.1 344.2 -344.2C374 -304.3 347.7 -215.5 362.2 -150C376.6 -84.5 431.7 -42.3 486.7 0L0 0Z" fill="#FDF2E0"></path></g></svg>