<svg id="visual" viewBox="0 0 900 600" width="900" height="600" xmlns="http://www.w3.org/2000/svg" xmlns:xlink="http://www.w3.org/1999/xlink" version="1.1"><rect x="0" y="0" width="900" height="600" fill="#FFFFFF"></rect><path d="M0 445L37.5 408.5C75 372 150 299 225 292C300 285 375 344 450 364.5C525 385 600 367 675 337.3C750 307.7 825 266.3 862.5 245.7L900 225L900 601L862.5 601C825 601 750 601 675 601C600 601 525 601 450 601C375 601 300 601 225 601C150 601 75 601 37.5 601L0 601Z" fill="#83D7FE" stroke-linecap="round" stroke-linejoin="miter"></path></svg>